<?xml version="1.0" standalone="no"?><!DOCTYPE svg PUBLIC "-//W3C//DTD SVG 1.1//EN" "http://www.w3.org/Graphics/SVG/1.1/DTD/svg11.dtd"><svg class="icon" width="200px" height="200.00px" viewBox="0 0 1024 1024" version="1.1" xmlns="http://www.w3.org/2000/svg"><path fill="#515151" d="M274.285714 749.714286H182.857143a18.285714 18.285714 0 0 1-18.285714-18.285715V219.428571a18.285714 18.285714 0 0 1 18.285714-18.285714h658.285714a18.285714 18.285714 0 0 1 18.285714 18.285714v512a18.285714 18.285714 0 0 1-18.285714 18.285715h-323.620571l-214.820572 143.213714A18.285714 18.285714 0 0 1 274.285714 877.714286v-128z m-73.142857-512v475.428571H292.571429a18.285714 18.285714 0 0 1 18.285714 18.285714v112.128l191.012571-127.341714A18.285714 18.285714 0 0 1 512 713.142857h310.857143v-475.428571h-621.714286zM365.714286 475.428571a36.571429 36.571429 0 1 1-73.142857 0 36.571429 36.571429 0 0 1 73.142857 0m182.857143 0a36.571429 36.571429 0 1 1-73.142858 0 36.571429 36.571429 0 0 1 73.142858 0m182.857142 0a36.571429 36.571429 0 1 1-73.142857 0 36.571429 36.571429 0 0 1 73.142857 0"  /></svg>